<mxfile host="app.diagrams.net" agent="Mozilla/5.0 (Windows NT 10.0; Win64; x64) AppleWebKit/537.36 (KHTML, like Gecko) Chrome/139.0.0.0 Safari/537.36 Edg/139.0.0.0" version="28.2.0">
  <diagram name="第 1 页" id="xwvt6HmRJ6FQO27jeONE">
    <mxGraphModel dx="2192" dy="1504" grid="1" gridSize="10" guides="1" tooltips="1" connect="1" arrows="1" fold="1" page="1" pageScale="1" pageWidth="827" pageHeight="1169" math="1" shadow="0">
      <root>
        <mxCell id="0" />
        <mxCell id="1" parent="0" />
        <mxCell id="f6fSq9WsWspbtxsKK7pm-1" value="" style="rounded=1;whiteSpace=wrap;html=1;fillColor=none;strokeColor=none;" vertex="1" parent="1">
          <mxGeometry x="322.28" y="514.4700000000003" width="557" height="83.52" as="geometry" />
        </mxCell>
        <mxCell id="f6fSq9WsWspbtxsKK7pm-2" value="" style="rounded=1;whiteSpace=wrap;html=1;fillColor=light-dark(#e6f1e5, #1f2f1e);dashed=1;dashPattern=8 8;strokeColor=none;" vertex="1" parent="1">
          <mxGeometry x="325.28" y="507" width="578.12" height="541" as="geometry" />
        </mxCell>
        <mxCell id="f6fSq9WsWspbtxsKK7pm-3" value="" style="rounded=1;whiteSpace=wrap;html=1;fillColor=none;strokeColor=none;" vertex="1" parent="1">
          <mxGeometry x="374.28" y="743.3000000000002" width="174" height="100.12" as="geometry" />
        </mxCell>
        <mxCell id="f6fSq9WsWspbtxsKK7pm-4" value="" style="rounded=1;whiteSpace=wrap;html=1;fontFamily=Times New Roman;fontSize=80;fillColor=light-dark(#FAE4D5,#EDEDED);" vertex="1" parent="1">
          <mxGeometry x="353.28" y="560.4200000000001" width="493" height="82" as="geometry" />
        </mxCell>
        <mxCell id="f6fSq9WsWspbtxsKK7pm-5" value="" style="rounded=1;whiteSpace=wrap;html=1;fontFamily=Times New Roman;fontSize=80;fillColor=light-dark(#fae4d5, #EDEDED);" vertex="1" parent="1">
          <mxGeometry x="353.28" y="930.4200000000001" width="493" height="82" as="geometry" />
        </mxCell>
        <mxCell id="f6fSq9WsWspbtxsKK7pm-6" value="" style="shape=cube;whiteSpace=wrap;html=1;boundedLbl=1;backgroundOutline=1;darkOpacity=0.05;darkOpacity2=0.1;fillColor=#F7CAAC;size=60;flipH=1;shadow=1;strokeColor=none;gradientColor=light-dark(#dae8fc, #EDEDED);gradientDirection=north;" vertex="1" parent="1">
          <mxGeometry x="357.28" y="748.3000000000002" width="90" height="90" as="geometry" />
        </mxCell>
        <mxCell id="f6fSq9WsWspbtxsKK7pm-7" value="" style="shape=image;verticalLabelPosition=bottom;labelBackgroundColor=default;verticalAlign=top;aspect=fixed;imageAspect=0;editableCssRules=.*;image=data:image/svg+xml,PHN2ZyB4bWxuczp4bGluaz0iaHR0cDovL3d3dy53My5vcmcvMTk5OS94bGluayIgeG1sbnM9Imh0dHA6Ly93d3cudzMub3JnLzIwMDAvc3ZnIiBoZWlnaHQ9IjE1NC41MzY5ODYzNTEwMTMxOCIgd2lkdGg9IjE1NC41NDgyMDM5NDUxNTk5IiB2ZXJzaW9uPSIxLjEiIHZpZXdCb3g9IjE0OC45NDU0NDk4MjkxMDE1NiA5My4wOTE1MDY5NTgwMDc4MSA3OTEuMjg2ODA0MTk5MjE4OCA3OTEuMjI5MzcwMTE3MTg3NSIgY2xhc3M9Imljb24iPjxwYXRoIGZpbGw9IiMzQjhERkYiIGQ9Ik05NDAuMjE4MTgyIDM1OS4wMDUwOTF2NDUxLjk1NjM2NGE2MS40NCA2MS40NCAwIDAgMS02LjkzNTI3MyAyOS42OTZjLTQuMDQ5NDU1IDcuNzczMDkxLTkuMjE2IDE0Ljg5NDU0NS0xNS4zMTM0NTQgMjEuMjI0NzI3YTc1LjQwMzYzNiA3NS40MDM2MzYgMCAwIDEtMjQuOTQ4MzY0IDE3LjQwOGMtOC4xNDU0NTUgMy4zMDQ3MjctMTYuODk2IDUuMDI2OTA5LTI1LjY5MzA5MSA1LjAyNjkwOUgyMTYuNDgyOTA5YTY0Ljg4NDM2NCA2NC44ODQzNjQgMCAwIDEtNDguMzYwNzI3LTIwLjg1MjM2NEE3MC41MTYzNjQgNzAuNTE2MzY0IDAgMCAxIDE0OC45NDU0NTUgODE2LjQwNzI3M1YzNTkuMDA1MDkxbDcyLjkzNjcyNy0yMjYuMzA0YTkzLjA5MDkwOSA5My4wOTA5MDkgMCAwIDEgMTcuNTk0MTgyLTE5LjY4ODcyN2MxMS44MjI1NDUtMTEuNjM2MzY0IDMwLjI1NDU0NS0xOC4xNTI3MjcgNTUuMjQ5NDU0LTE5LjczNTI3M2g0OTkuNjE4OTA5YzIuNjA2NTQ1LTEuMDI0IDEzLjQ5ODE4MiAyLjE4NzYzNiAzMi42MjgzNjQgOS42ODE0NTQgMTkuMTc2NzI3IDcuNDQ3MjczIDMyLjU4MTgxOCAyNC44NTUyNzMgNDAuMzA4MzY0IDUyLjEzMDkxTDk0MC4yMTgxODIgMzU5LjAwNTA5MXogbS05NS4xODU0NTUtNTYuMzY2NTQ2bC00NS4yODg3MjctMTM1LjkxMjcyN0gyODQuMDIwMzY0bC0zOS45MzYgMTM1LjkxMjcyN2g2MDAuOTQ4MzYzeiBtLTE1MC4wNjI1NDUgMzQwLjI0NzI3M2MyMC4wMTQ1NDUtMjMuNjQ1MDkxIDIwLjAxNDU0NS01OC4yMjgzNjQgMC04MS45MmE1Ny43NjI5MDkgNTcuNzYyOTA5IDAgMCAwLTQxLjAwNjU0Ni0xNS44MjU0NTRINDI5Ljg0NzI3M2E1Ny44NTYgNTcuODU2IDAgMCAwLTQxLjAwNjU0NiAxNS44MjU0NTQgNTYuMDg3MjczIDU2LjA4NzI3MyAwIDAgMCA0MS4wMDY1NDYgOTcuMDQ3MjczaDIyNC4xMTYzNjNjMTUuMTczODE4IDAuNzkxMjczIDI5Ljk3NTI3My00LjY1NDU0NSA0MS4wMDY1NDYtMTUuMDgwNzI3eiIvPjwvc3ZnPg==;" vertex="1" parent="1">
          <mxGeometry x="310" y="1075.8599999999997" width="43.28" height="43.28" as="geometry" />
        </mxCell>
        <mxCell id="f6fSq9WsWspbtxsKK7pm-8" value="Decoder Layer" style="rounded=1;whiteSpace=wrap;html=1;fontSize=45;fontFamily=Times New Roman;fillColor=none;strokeColor=none;" vertex="1" parent="1">
          <mxGeometry x="495.28" y="949.81" width="283.12" height="45" as="geometry" />
        </mxCell>
        <mxCell id="f6fSq9WsWspbtxsKK7pm-9" value="Decoder Layer" style="rounded=1;whiteSpace=wrap;html=1;fontSize=45;fontFamily=Times New Roman;fillColor=none;strokeColor=none;" vertex="1" parent="1">
          <mxGeometry x="509.28" y="573.48" width="280.12" height="50.73" as="geometry" />
        </mxCell>
        <mxCell id="f6fSq9WsWspbtxsKK7pm-10" value="" style="shape=image;verticalLabelPosition=bottom;labelBackgroundColor=default;verticalAlign=top;aspect=fixed;imageAspect=0;editableCssRules=.*;image=data:image/svg+xml,PHN2ZyB4bWxuczp4bGluaz0iaHR0cDovL3d3dy53My5vcmcvMTk5OS94bGluayIgeG1sbnM9Imh0dHA6Ly93d3cudzMub3JnLzIwMDAvc3ZnIiBoZWlnaHQ9IjE4OS41NjM2NDM5MzIzNDI1MyIgd2lkdGg9IjE0NS4xODY1NDM0NjQ2NjA2NCIgdmVyc2lvbj0iMS4xIiB2aWV3Qm94PSIxMzkuNzQ1MzYxMzI4MTI1IDAuOTMwODQ3MTY3OTY4NzUgNzQzLjM1NTEwMjUzOTA2MjUgOTcwLjU2NTg1NjkzMzU5MzgiIGNsYXNzPSJpY29uIj48cGF0aCBmaWxsPSIjRkY1RTAwIiBkPSJNNzAxLjc5NjUzOCAxODEuMTU0OTA5YzIwLjIwMDcyNyA1MS4yIDIzLjI3MjcyNyAxMzUuNzI2NTQ1LTE4LjYxODE4MiAxNzYuNDA3MjczQzYxNC45NDI3MiA1OS4yMDU4MTggNDQ0Ljc3MjUzOCAwLjkzMDkwOSA0NDQuNzcyNTM4IDAuOTMwOTA5YzIwLjI5MzgxOCAxNTEuNjQ1MDkxLTcxLjEyMTQ1NSAzMTcuNjI2MTgyLTE2MC44NjEwOTEgNDQyLjc0MDM2NC0yLjk3ODkwOS01OS45NTA1NDUtNi4yMzcwOTEtMTAwLjUzODE4Mi0zNS41NjA3MjctMTYyLjM1MDU0NkMyNDIuMjA2NzIgMzkyLjU2NDM2NCAxNjguMDEzMjY1IDQ4MC44MTQ1NDUgMTQ2LjQxNjE3NSA1OTIuMDU4MTgyYy0yNi4yNTE2MzYgMTUzLjUwNjkwOSAyMS41OTcwOTEgMjYxLjEyIDIwNC4wNTUyNzIgMzc5LjQzODU0NS01Ny4yNTA5MDktMTM1LjcyNjU0NS0yNi4yNTE2MzYtMjEzLjQ1NzQ1NSAxOC42MTgxODItMjgzLjkyNzI3MiA0Ny45NDE4MTgtODEuMDgyMTgyIDYwLjUwOTA5MS0xNTguODEzMDkxIDYwLjUwOTA5MS0xNTguODEzMDkxczM4LjUzOTYzNiA1NC42NDQzNjQgMjMuMjcyNzI3IDE0MS4wMzI3MjdjNjQuNzkxMjczLTg0LjYxOTYzNiA3Ny4zNTg1NDUtMjIwLjYyNTQ1NSA2OC4xNDI1NDYtMjY5Ljk2MzYzNiAxNDguMzg2OTA5IDExOC4yMjU0NTUgMjE0Ljg1MzgxOCAzNzkuNDM4NTQ1IDEyOC4zNzIzNjMgNTY4LjEzMzgxOCA0NTcuNjM0OTA5LTI5OC4wNzcwOTEgMTEyLjY0LTc0MS4wMDM2MzYgNTIuNDEwMTgyLTc4Ni43MTEyNzMiLz48L3N2Zz4=;shadow=0;direction=east;" vertex="1" parent="1">
          <mxGeometry x="790.2800000000001" y="948.5900000000001" width="36.12" height="47.33" as="geometry" />
        </mxCell>
        <mxCell id="f6fSq9WsWspbtxsKK7pm-11" value="" style="shape=cube;whiteSpace=wrap;html=1;boundedLbl=1;backgroundOutline=1;darkOpacity=0.05;darkOpacity2=0.1;fillColor=#F7CAAC;size=60;flipH=1;shadow=1;strokeColor=none;gradientColor=light-dark(#dae8fc, #EDEDED);gradientDirection=north;" vertex="1" parent="1">
          <mxGeometry x="397.28" y="748.3000000000002" width="90" height="90" as="geometry" />
        </mxCell>
        <mxCell id="f6fSq9WsWspbtxsKK7pm-12" value="" style="shape=cube;whiteSpace=wrap;html=1;boundedLbl=1;backgroundOutline=1;darkOpacity=0.05;darkOpacity2=0.1;fillColor=#F7CAAC;size=60;flipH=1;shadow=1;strokeColor=none;gradientColor=light-dark(#dae8fc, #EDEDED);gradientDirection=north;" vertex="1" parent="1">
          <mxGeometry x="487.28" y="748.3000000000002" width="90" height="90" as="geometry" />
        </mxCell>
        <mxCell id="f6fSq9WsWspbtxsKK7pm-13" value="..." style="text;html=1;align=center;verticalAlign=middle;resizable=0;points=[];autosize=1;strokeColor=none;fillColor=none;fontSize=50;fontFamily=Times New Roman;" vertex="1" parent="1">
          <mxGeometry x="447.2799999999995" y="758.3000000000002" width="60" height="70" as="geometry" />
        </mxCell>
        <mxCell id="f6fSq9WsWspbtxsKK7pm-14" value="&lt;span style=&quot;text-wrap-mode: nowrap;&quot;&gt;&lt;font style=&quot;font-size: 50px;&quot;&gt;$${h}_{i}$$&lt;/font&gt;&lt;/span&gt;" style="rounded=0;whiteSpace=wrap;html=1;fontSize=80;fillColor=none;strokeColor=none;fontFamily=Times New Roman;" vertex="1" parent="1">
          <mxGeometry x="503.28" y="787.54" width="104.06" height="66.88" as="geometry" />
        </mxCell>
        <mxCell id="f6fSq9WsWspbtxsKK7pm-15" value="" style="endArrow=classic;html=1;rounded=0;strokeWidth=3;entryX=0.5;entryY=1;entryDx=0;entryDy=0;" edge="1" parent="1" target="f6fSq9WsWspbtxsKK7pm-3">
          <mxGeometry width="50" height="50" relative="1" as="geometry">
            <mxPoint x="461.28" y="883" as="sourcePoint" />
            <mxPoint x="466.28" y="837.4200000000001" as="targetPoint" />
          </mxGeometry>
        </mxCell>
        <mxCell id="f6fSq9WsWspbtxsKK7pm-16" style="edgeStyle=orthogonalEdgeStyle;rounded=0;orthogonalLoop=1;jettySize=auto;html=1;exitX=0.5;exitY=0;exitDx=0;exitDy=0;entryX=0.5;entryY=1;entryDx=0;entryDy=0;strokeWidth=3;" edge="1" parent="1" source="f6fSq9WsWspbtxsKK7pm-3" target="f6fSq9WsWspbtxsKK7pm-17">
          <mxGeometry relative="1" as="geometry" />
        </mxCell>
        <mxCell id="f6fSq9WsWspbtxsKK7pm-17" value="" style="ellipse;whiteSpace=wrap;html=1;aspect=fixed;strokeWidth=3;" vertex="1" parent="1">
          <mxGeometry x="444.28" y="678.5900000000001" width="34" height="34" as="geometry" />
        </mxCell>
        <mxCell id="f6fSq9WsWspbtxsKK7pm-18" style="rounded=0;orthogonalLoop=1;jettySize=auto;html=1;exitX=0;exitY=0.5;exitDx=0;exitDy=0;entryX=1;entryY=0.5;entryDx=0;entryDy=0;endArrow=none;startFill=0;strokeWidth=3;" edge="1" parent="1" source="f6fSq9WsWspbtxsKK7pm-17" target="f6fSq9WsWspbtxsKK7pm-17">
          <mxGeometry relative="1" as="geometry" />
        </mxCell>
        <mxCell id="f6fSq9WsWspbtxsKK7pm-19" style="rounded=0;orthogonalLoop=1;jettySize=auto;html=1;exitX=0.5;exitY=0;exitDx=0;exitDy=0;entryX=0.5;entryY=1;entryDx=0;entryDy=0;strokeWidth=3;endArrow=none;startFill=0;" edge="1" parent="1" source="f6fSq9WsWspbtxsKK7pm-17" target="f6fSq9WsWspbtxsKK7pm-17">
          <mxGeometry relative="1" as="geometry" />
        </mxCell>
        <mxCell id="f6fSq9WsWspbtxsKK7pm-20" style="rounded=0;orthogonalLoop=1;jettySize=auto;html=1;exitX=0.5;exitY=0;exitDx=0;exitDy=0;entryX=0.218;entryY=1.006;entryDx=0;entryDy=0;entryPerimeter=0;strokeWidth=3;" edge="1" parent="1" source="f6fSq9WsWspbtxsKK7pm-17">
          <mxGeometry relative="1" as="geometry">
            <mxPoint x="463.28" y="678.5900000000001" as="sourcePoint" />
            <mxPoint x="461.75400000000013" y="642.9119999999998" as="targetPoint" />
          </mxGeometry>
        </mxCell>
        <mxCell id="f6fSq9WsWspbtxsKK7pm-21" value="&lt;span style=&quot;text-wrap-mode: nowrap;&quot;&gt;&lt;font&gt;$$i\text{-}th$$&lt;/font&gt;&lt;/span&gt;" style="rounded=0;whiteSpace=wrap;html=1;fontSize=35;fillColor=none;strokeColor=none;fontFamily=Times New Roman;" vertex="1" parent="1">
          <mxGeometry x="385.28" y="945.9200000000001" width="109.5" height="53" as="geometry" />
        </mxCell>
        <mxCell id="f6fSq9WsWspbtxsKK7pm-22" value="&lt;span style=&quot;text-wrap-mode: nowrap;&quot;&gt;&lt;font&gt;$$(i+1)\text{-}th$$&lt;/font&gt;&lt;/span&gt;" style="rounded=0;whiteSpace=wrap;html=1;fontSize=35;fillColor=none;strokeColor=none;fontFamily=Times New Roman;" vertex="1" parent="1">
          <mxGeometry x="361.28" y="568.5299999999997" width="150.75" height="61.21" as="geometry" />
        </mxCell>
        <mxCell id="f6fSq9WsWspbtxsKK7pm-23" value="" style="shape=image;verticalLabelPosition=bottom;labelBackgroundColor=default;verticalAlign=top;aspect=fixed;imageAspect=0;editableCssRules=.*;image=data:image/svg+xml,PHN2ZyB4bWxuczp4bGluaz0iaHR0cDovL3d3dy53My5vcmcvMTk5OS94bGluayIgeG1sbnM9Imh0dHA6Ly93d3cudzMub3JnLzIwMDAvc3ZnIiBoZWlnaHQ9IjE4OS41NjM2NDM5MzIzNDI1MyIgd2lkdGg9IjE0NS4xODY1NDM0NjQ2NjA2NCIgdmVyc2lvbj0iMS4xIiB2aWV3Qm94PSIxMzkuNzQ1MzYxMzI4MTI1IDAuOTMwODQ3MTY3OTY4NzUgNzQzLjM1NTEwMjUzOTA2MjUgOTcwLjU2NTg1NjkzMzU5MzgiIGNsYXNzPSJpY29uIj48cGF0aCBmaWxsPSIjRkY1RTAwIiBkPSJNNzAxLjc5NjUzOCAxODEuMTU0OTA5YzIwLjIwMDcyNyA1MS4yIDIzLjI3MjcyNyAxMzUuNzI2NTQ1LTE4LjYxODE4MiAxNzYuNDA3MjczQzYxNC45NDI3MiA1OS4yMDU4MTggNDQ0Ljc3MjUzOCAwLjkzMDkwOSA0NDQuNzcyNTM4IDAuOTMwOTA5YzIwLjI5MzgxOCAxNTEuNjQ1MDkxLTcxLjEyMTQ1NSAzMTcuNjI2MTgyLTE2MC44NjEwOTEgNDQyLjc0MDM2NC0yLjk3ODkwOS01OS45NTA1NDUtNi4yMzcwOTEtMTAwLjUzODE4Mi0zNS41NjA3MjctMTYyLjM1MDU0NkMyNDIuMjA2NzIgMzkyLjU2NDM2NCAxNjguMDEzMjY1IDQ4MC44MTQ1NDUgMTQ2LjQxNjE3NSA1OTIuMDU4MTgyYy0yNi4yNTE2MzYgMTUzLjUwNjkwOSAyMS41OTcwOTEgMjYxLjEyIDIwNC4wNTUyNzIgMzc5LjQzODU0NS01Ny4yNTA5MDktMTM1LjcyNjU0NS0yNi4yNTE2MzYtMjEzLjQ1NzQ1NSAxOC42MTgxODItMjgzLjkyNzI3MiA0Ny45NDE4MTgtODEuMDgyMTgyIDYwLjUwOTA5MS0xNTguODEzMDkxIDYwLjUwOTA5MS0xNTguODEzMDkxczM4LjUzOTYzNiA1NC42NDQzNjQgMjMuMjcyNzI3IDE0MS4wMzI3MjdjNjQuNzkxMjczLTg0LjYxOTYzNiA3Ny4zNTg1NDUtMjIwLjYyNTQ1NSA2OC4xNDI1NDYtMjY5Ljk2MzYzNiAxNDguMzg2OTA5IDExOC4yMjU0NTUgMjE0Ljg1MzgxOCAzNzkuNDM4NTQ1IDEyOC4zNzIzNjMgNTY4LjEzMzgxOCA0NTcuNjM0OTA5LTI5OC4wNzcwOTEgMTEyLjY0LTc0MS4wMDM2MzYgNTIuNDEwMTgyLTc4Ni43MTEyNzMiLz48L3N2Zz4=;shadow=0;direction=east;" vertex="1" parent="1">
          <mxGeometry x="796.2800000000001" y="576.81" width="36.12" height="47.33" as="geometry" />
        </mxCell>
        <mxCell id="f6fSq9WsWspbtxsKK7pm-24" value="" style="shape=cube;whiteSpace=wrap;html=1;boundedLbl=1;backgroundOutline=1;darkOpacity=0.05;darkOpacity2=0.1;fillColor=#F7CAAC;size=60;flipH=1;shadow=1;strokeColor=none;gradientColor=light-dark(#F7CAAC,#EDEDED);gradientDirection=east;" vertex="1" parent="1">
          <mxGeometry x="634.2899999999998" y="749.3000000000002" width="90" height="90" as="geometry" />
        </mxCell>
        <mxCell id="f6fSq9WsWspbtxsKK7pm-25" value="" style="shape=cube;whiteSpace=wrap;html=1;boundedLbl=1;backgroundOutline=1;darkOpacity=0.05;darkOpacity2=0.1;fillColor=#F7CAAC;size=60;flipH=1;shadow=1;strokeColor=none;gradientColor=light-dark(#F7CAAC,#EDEDED);gradientDirection=east;" vertex="1" parent="1">
          <mxGeometry x="674.2899999999998" y="749.3000000000002" width="90" height="90" as="geometry" />
        </mxCell>
        <mxCell id="f6fSq9WsWspbtxsKK7pm-26" value="" style="shape=cube;whiteSpace=wrap;html=1;boundedLbl=1;backgroundOutline=1;darkOpacity=0.05;darkOpacity2=0.1;fillColor=#F7CAAC;size=60;flipH=1;shadow=1;strokeColor=none;gradientColor=light-dark(#F7CAAC,#EDEDED);gradientDirection=east;" vertex="1" parent="1">
          <mxGeometry x="764.2899999999998" y="749.3000000000002" width="90" height="90" as="geometry" />
        </mxCell>
        <mxCell id="f6fSq9WsWspbtxsKK7pm-27" value="..." style="text;html=1;align=center;verticalAlign=middle;resizable=0;points=[];autosize=1;strokeColor=none;fillColor=none;fontSize=50;fontFamily=Times New Roman;" vertex="1" parent="1">
          <mxGeometry x="724.2899999999994" y="759.3000000000002" width="60" height="70" as="geometry" />
        </mxCell>
        <mxCell id="f6fSq9WsWspbtxsKK7pm-28" value="&lt;span style=&quot;text-wrap-mode: nowrap;&quot;&gt;&lt;font style=&quot;font-size: 50px;&quot;&gt;$${h}_{j}$$&lt;/font&gt;&lt;/span&gt;" style="rounded=0;whiteSpace=wrap;html=1;fontSize=80;fillColor=none;strokeColor=none;fontFamily=Times New Roman;" vertex="1" parent="1">
          <mxGeometry x="780.2899999999998" y="788.54" width="104.06" height="66.88" as="geometry" />
        </mxCell>
        <mxCell id="f6fSq9WsWspbtxsKK7pm-29" style="rounded=0;orthogonalLoop=1;jettySize=auto;html=1;exitX=0.5;exitY=0;exitDx=0;exitDy=0;entryX=0.786;entryY=1.006;entryDx=0;entryDy=0;strokeWidth=3;entryPerimeter=0;" edge="1" parent="1" source="f6fSq9WsWspbtxsKK7pm-30" target="f6fSq9WsWspbtxsKK7pm-4">
          <mxGeometry relative="1" as="geometry">
            <mxPoint x="744.2899999999998" y="713" as="targetPoint" />
          </mxGeometry>
        </mxCell>
        <mxCell id="f6fSq9WsWspbtxsKK7pm-30" value="" style="rounded=1;whiteSpace=wrap;html=1;fillColor=none;strokeColor=none;" vertex="1" parent="1">
          <mxGeometry x="655.2899999999998" y="744.3000000000002" width="174" height="100.12" as="geometry" />
        </mxCell>
        <mxCell id="f6fSq9WsWspbtxsKK7pm-31" style="rounded=0;orthogonalLoop=1;jettySize=auto;html=1;entryX=0.5;entryY=1;entryDx=0;entryDy=0;strokeWidth=3;" edge="1" parent="1" target="f6fSq9WsWspbtxsKK7pm-30">
          <mxGeometry relative="1" as="geometry">
            <mxPoint x="927.2800000000001" y="726" as="targetPoint" />
            <mxPoint x="742.2800000000001" y="884" as="sourcePoint" />
          </mxGeometry>
        </mxCell>
        <mxCell id="f6fSq9WsWspbtxsKK7pm-32" value="Xbox 360 Versus Controller" style="rounded=1;whiteSpace=wrap;html=1;fontFamily=Times New Roman;fontSize=30;fillColor=#FCF1EA;strokeColor=none;" vertex="1" parent="1">
          <mxGeometry x="366.68000000000006" y="1060" width="240.94" height="75" as="geometry" />
        </mxCell>
        <mxCell id="f6fSq9WsWspbtxsKK7pm-33" value="&lt;span style=&quot;text-wrap-mode: nowrap;&quot;&gt;&lt;font&gt;LLM&lt;/font&gt;&lt;/span&gt;" style="rounded=0;whiteSpace=wrap;html=1;fontSize=45;fillColor=none;strokeColor=none;fontFamily=Times New Roman;" vertex="1" parent="1">
          <mxGeometry x="682.4" y="508.21000000000004" width="139" height="53" as="geometry" />
        </mxCell>
        <mxCell id="f6fSq9WsWspbtxsKK7pm-34" value="" style="shape=image;verticalLabelPosition=bottom;labelBackgroundColor=default;verticalAlign=top;aspect=fixed;imageAspect=0;editableCssRules=.*;image=data:image/svg+xml,PHN2ZyB4bWxuczp4bGluaz0iaHR0cDovL3d3dy53My5vcmcvMTk5OS94bGluayIgeG1sbnM9Imh0dHA6Ly93d3cudzMub3JnLzIwMDAvc3ZnIiBoZWlnaHQ9IjE3NC45ODA0NzM1MTgzNzE1OCIgd2lkdGg9IjE3NC44MTQ0NjI2NjE3NDMxNiIgZGF0YS1zcG0tYW5jaG9yLWlkPSJhMzEzeC5zZWFyY2hfaW5kZXguMC5pOC40ZmEwM2E4MTdYR09ubCIgdmVyc2lvbj0iMS4xIiB2aWV3Qm94PSI2NCA2NC4xMDAwMDYxMDM1MTU2MiA4OTUuMDUwMDQ4ODI4MTI1IDg5NS45MDAwMjQ0MTQwNjI1IiBjbGFzcz0iaWNvbiI+PHBhdGggY2xhc3M9InNlbGVjdGVkIiBkYXRhLXNwbS1hbmNob3ItaWQ9ImEzMTN4LnNlYXJjaF9pbmRleC4wLmk5LjRmYTAzYTgxN1hHT25sIiBmaWxsPSIjNjA1QkVDIiBkPSJNOTU1IDYwNy4yTDg0My42IDQxMi4xbDQ3LjgtOTEuNmM2LjYtOC43IDguMy0yMS41IDUuNi0zMS44TDgzNS43IDE3OGMtNC43LTcuMy0xMi44LTExLjgtMjEuNS0xMkg1ODYuM2wtNTEtODkuMmMtMy42LTctMTAuNS0xMS44LTE4LjMtMTIuN0gzOTYuN2MtOC45IDAuMi0xNS4yIDYuNy0xOS42IDE0LjRsLTEuOSAzLjEtMTEzLjggMTk1LjFIMTUyLjJjLTktMC4yLTE3LjUgNC4zLTIyLjMgMTJMNjcgNDAwLjFjLTQgOC00IDE3LjUgMCAyNS41bDExMy4xIDE5Ni43LTUxIDg5LjJjLTQgOC00IDE3LjQgMCAyNS41bDU4LjEgMTAyYzQuNyA3LjggMTMuMiAxMi43IDIyLjMgMTIuN2gyMjcuOGw1NC45IDk1LjVjNC4yIDcuMiAxMS42IDExLjkgMTkuOSAxMi44aDEyOWM4LjktMC4yIDE3LjEtNSAyMS41LTEyLjdMNzc1IDc1MC41aDEwMC40YzguOS0wLjggMTYuOS01LjggMjEuNS0xMy41TDk1NSA2MzQuM2M1LjQtOC4zIDUuNC0xOC45IDAtMjcuMXpNODE0LjEgNjIwTDc1NiA1MTIuNSA1MTcgOTMzLjdsLTY1LjMtMTA3LjVIMjEyLjhsNTcuNC0xMDQuM0gzOTJMMTUzIDMwMi4yaDEyNUwzOTYuNyA5MC4zbDU5LjcgMTA0LjMtNjEuMyAxMDcuNUg4NzNsLTYwLjUgMTA2LjggMTIwLjMgMjExSDgxNC4xeiIvPjxwYXRoIGNsYXNzPSIiIGRhdGEtc3BtLWFuY2hvci1pZD0iYTMxM3guc2VhcmNoX2luZGV4LjAuaTYuNGZhMDNhODE3WEdPbmwiIGZpbGw9IiM2MDVCRUMiIGQ9Ik01MTEuNCA2NjAuNWwxNDktMjM4LjlIMzYxLjdsMTQ5LjcgMjM4Ljl6IG0wIDAiLz48L3N2Zz4=;" vertex="1" parent="1">
          <mxGeometry x="815.4000000000002" y="517.1199999999994" width="46.58" height="46.58" as="geometry" />
        </mxCell>
        <mxCell id="f6fSq9WsWspbtxsKK7pm-35" value="Versus Controller Xbox 360&amp;nbsp;&amp;nbsp;" style="rounded=1;whiteSpace=wrap;html=1;fontFamily=Times New Roman;fontSize=30;fillColor=#FCF1EA;strokeColor=none;" vertex="1" parent="1">
          <mxGeometry x="671.2800000000001" y="1060" width="240.94" height="75" as="geometry" />
        </mxCell>
        <mxCell id="f6fSq9WsWspbtxsKK7pm-36" value="" style="html=1;shadow=0;dashed=0;align=center;verticalAlign=middle;shape=mxgraph.arrows2.jumpInArrow;dy=11.3;dx=25.49;arrowHead=62.33;rotation=144;fillColor=light-dark(#0081ff, #198cc4);strokeColor=none;direction=west;flipV=1;fontColor=#ffffff;opacity=50;" vertex="1" parent="1">
          <mxGeometry x="552.5699999999999" y="1053.8599999999997" width="160.13" height="155.52" as="geometry" />
        </mxCell>
        <mxCell id="f6fSq9WsWspbtxsKK7pm-37" value="&lt;span style=&quot;text-wrap-mode: nowrap;&quot;&gt;&lt;font&gt;Shuffle&lt;/font&gt;&lt;/span&gt;" style="rounded=0;whiteSpace=wrap;html=1;fontSize=32;fillColor=none;strokeColor=none;fontFamily=Times New Roman;" vertex="1" parent="1">
          <mxGeometry x="556.28" y="1113" width="143" height="53.09" as="geometry" />
        </mxCell>
        <mxCell id="f6fSq9WsWspbtxsKK7pm-38" value="" style="endArrow=classic;html=1;rounded=0;strokeWidth=3;" edge="1" parent="1">
          <mxGeometry width="50" height="50" relative="1" as="geometry">
            <mxPoint x="463.28" y="1060" as="sourcePoint" />
            <mxPoint x="463.28" y="1015" as="targetPoint" />
          </mxGeometry>
        </mxCell>
        <mxCell id="f6fSq9WsWspbtxsKK7pm-39" value="" style="endArrow=classic;html=1;rounded=0;strokeWidth=3;entryX=0.789;entryY=0.996;entryDx=0;entryDy=0;entryPerimeter=0;" edge="1" parent="1" target="f6fSq9WsWspbtxsKK7pm-5">
          <mxGeometry width="50" height="50" relative="1" as="geometry">
            <mxPoint x="742.2800000000001" y="1059" as="sourcePoint" />
            <mxPoint x="748.7800000000001" y="991.4700000000003" as="targetPoint" />
          </mxGeometry>
        </mxCell>
        <mxCell id="f6fSq9WsWspbtxsKK7pm-40" value="" style="endArrow=none;html=1;rounded=0;curved=1;dashed=1;strokeWidth=4;" edge="1" parent="1">
          <mxGeometry width="50" height="50" relative="1" as="geometry">
            <mxPoint x="953.2500000000001" y="1176" as="sourcePoint" />
            <mxPoint x="950.2500000000001" y="390" as="targetPoint" />
          </mxGeometry>
        </mxCell>
        <mxCell id="f6fSq9WsWspbtxsKK7pm-41" value="&lt;span style=&quot;text-wrap-mode: nowrap;&quot;&gt;&lt;font&gt;$$\mathcal{L}_{cl}$$&lt;/font&gt;&lt;/span&gt;" style="rounded=0;whiteSpace=wrap;html=1;fontSize=40;fillColor=none;strokeColor=none;fontFamily=Times New Roman;" vertex="1" parent="1">
          <mxGeometry x="564.28" y="431" width="81" height="51" as="geometry" />
        </mxCell>
        <mxCell id="f6fSq9WsWspbtxsKK7pm-42" value="" style="html=1;shadow=0;dashed=0;align=center;verticalAlign=middle;shape=mxgraph.arrows2.jumpInArrow;dy=9.81;dx=19.84;arrowHead=39.67;rotation=0;fillColor=#1ba1e2;strokeColor=none;fontColor=#ffffff;" vertex="1" parent="1">
          <mxGeometry x="458.28" y="448" width="113" height="120.41" as="geometry" />
        </mxCell>
        <mxCell id="f6fSq9WsWspbtxsKK7pm-43" value="" style="html=1;shadow=0;dashed=0;align=center;verticalAlign=middle;shape=mxgraph.arrows2.jumpInArrow;dy=9.81;dx=19.84;arrowHead=39.67;rotation=-180;fillColor=#1ba1e2;strokeColor=none;fontColor=#ffffff;flipV=1;" vertex="1" parent="1">
          <mxGeometry x="637.7400000000001" y="442.28999999999996" width="109" height="120.41" as="geometry" />
        </mxCell>
      </root>
    </mxGraphModel>
  </diagram>
</mxfile>
